<?xml version="1.0" encoding="iso-8859-1"?>
<!-- Generator: Adobe Illustrator 19.0.0, SVG Export Plug-In . SVG Version: 6.00 Build 0)  -->
<svg version="1.1" id="Layer_1" xmlns="http://www.w3.org/2000/svg" xmlns:xlink="http://www.w3.org/1999/xlink" x="0px" y="0px"
	 viewBox="0 0 496 496" style="enable-background:new 0 0 496 496;" xml:space="preserve">
<g>
	<circle style="fill:#F7910B;" cx="440" cy="190.4" r="56"/>
	<circle style="fill:#F7910B;" cx="56" cy="190.4" r="56"/>
	<path style="fill:#F7910B;" d="M490.4,292c0,104-95.2,188-242.4,188S5.6,396,5.6,292S100.8,32,248,32S490.4,188,490.4,292z"/>
	<path style="fill:#F7910B;" d="M490.4,292c0,104-95.2,156-242.4,156S5.6,396,5.6,292S100.8,16,248,16S490.4,188,490.4,292z"/>
</g>
<g>
	<path style="fill:#F9A908;" d="M248,16c147.2,0,242.4,172,242.4,276S395.2,448,248,448"/>
	<path style="fill:#F9A908;" d="M490.4,292c0,104-95.2,156-242.4,156S5.6,396,5.6,292S100.8,32,248,32S490.4,188,490.4,292z"/>
</g>
<path style="fill:#F9C55D;" d="M5.6,292C5.6,188,100.8,32,248,32"/>
<path style="fill:#F7910B;" d="M248,32c147.2,0,242.4,156,242.4,260S395.2,480,248,480"/>
<path style="fill:#EA7103;" d="M248,32c147.2,0,242.4,156,242.4,260"/>
<path style="fill:#19BCA4;" d="M199.2,111.2c2.4,6.4-9.6,7.2-23.2,12.8c-13.6,4.8-23.2,12.8-25.6,6.4c-2.4-6.4,6.4-16,20-20.8
	C183.2,104,196,104.8,199.2,111.2z"/>
<path style="fill:#109DA0;" d="M199.2,111.2c2.4,6.4-9.6,7.2-23.2,12.8c-13.6,4.8-23.2,12.8-25.6,6.4"/>
<path style="fill:#19BCA4;" d="M296.8,111.2c-2.4,6.4,9.6,7.2,23.2,12.8c13.6,4.8,23.2,12.8,25.6,6.4c2.4-6.4-6.4-16-20-20.8
	C312.8,104,300,104.8,296.8,111.2z"/>
<path style="fill:#109DA0;" d="M296.8,111.2c-2.4,6.4,9.6,7.2,23.2,12.8c13.6,4.8,23.2,12.8,25.6,6.4"/>
<path style="fill:#F9C55D;" d="M214.4,238.4c0,9.6-28,5.6-62.4,5.6s-62.4,4.8-62.4-5.6c0-9.6,28-17.6,62.4-17.6
	C186.4,220.8,214.4,228.8,214.4,238.4z"/>
<path style="fill:#F9A908;" d="M406.4,238.4c0,9.6-28,5.6-62.4,5.6s-62.4,4.8-62.4-5.6c0-9.6,28-17.6,62.4-17.6
	S406.4,228.8,406.4,238.4z"/>
<g>
	<circle style="fill:#F7910B;" cx="74.4" cy="268" r="4.8"/>
	<circle style="fill:#F7910B;" cx="38.4" cy="284" r="8.8"/>
	<circle style="fill:#F7910B;" cx="62.4" cy="252" r="1.6"/>
	<circle style="fill:#F7910B;" cx="99.2" cy="266.4" r="1.6"/>
</g>
<g>
	<circle style="fill:#F9A908;" cx="412.8" cy="270.4" r="6.4"/>
	<circle style="fill:#F9A908;" cx="432.8" cy="281.6" r="1.6"/>
	<circle style="fill:#F9A908;" cx="390.4" cy="211.2" r="2.4"/>
	<circle style="fill:#F9A908;" cx="386.4" cy="304" r="10.4"/>
	<circle style="fill:#F9A908;" cx="444" cy="304.8" r="4.8"/>
</g>
<g>
	<circle style="fill:#F7910B;" cx="66.4" cy="300" r="4"/>
	<circle style="fill:#F7910B;" cx="72.8" cy="232.8" r="3.2"/>
</g>
<g>
	<circle style="fill:#F9A908;" cx="30.4" cy="122.4" r="8.8"/>
	<circle style="fill:#F9A908;" cx="56" cy="94.4" r="4.8"/>
	<circle style="fill:#F9A908;" cx="465.6" cy="141.6" r="1.6"/>
	<circle style="fill:#F9A908;" cx="459.2" cy="118.4" r="6.4"/>
	<circle style="fill:#F9A908;" cx="480" cy="122.4" r="4"/>
	<circle style="fill:#F9A908;" cx="40" cy="146.4" r="4.8"/>
</g>
<path style="fill:#F7910B;" d="M305.6,352.8c0,20.8-26.4,79.2-59.2,79.2s-59.2-58.4-59.2-79.2"/>
<path style="fill:#C42260;" d="M366.4,234.4c0,72.8-52.8,132-118.4,132s-118.4-59.2-118.4-132"/>
<path style="fill:#99144A;" d="M366.4,234.4c0,24.8-52.8,44.8-118.4,44.8s-118.4-20-118.4-44.8"/>
<path style="fill:#E2446E;" d="M248,367.2c36.8,0,68.8-18.4,90.4-47.2c-13.6-16.8-32.8-27.2-54.4-27.2c-12.8,0-25.6,4-36,10.4
	c-10.4-7.2-23.2-10.4-36-10.4c-21.6,0-40.8,10.4-54.4,27.2C179.2,348,211.2,367.2,248,367.2z"/>
<g>
	<path style="fill:#CCF2E3;" d="M370.4,48.8c14.4-12.8,51.2,6.4,83.2,42.4s32.8,75.2,18.4,88s-37.6-6.4-69.6-42.4
		C371.2,100,356.8,60.8,370.4,48.8z"/>
	<path style="fill:#CCF2E3;" d="M320,181.6c56,12,44-4,46.4-20s19.2-25.6-36.8-37.6s-80-3.2-83.2,12.8C244,152,264,169.6,320,181.6z
		"/>
</g>
<path style="fill:#AAD6C3;" d="M247.2,136c-2.4,16,17.6,33.6,73.6,44.8c56,12,44-4,46.4-20"/>
<path style="fill:#CCF2E3;" d="M343.2,126.4c56,12,44-4,46.4-20s27.2-24.8-28.8-36.8s-88-4-91.2,12
	C267.2,96.8,287.2,114.4,343.2,126.4z"/>
<path style="fill:#AAD6C3;" d="M269.6,80.8c-2.4,16,17.6,33.6,73.6,44.8c56,12,44-4,46.4-20"/>
<path style="fill:#CCF2E3;" d="M333.6,244c56,12,44-4,46.4-20s19.2-25.6-36.8-37.6s-80.8-3.2-83.2,12.8
	C257.6,214.4,277.6,232,333.6,244z"/>
<path style="fill:#AAD6C3;" d="M260,198.4c-2.4,16,17.6,33.6,73.6,44.8c56,12,44-4,46.4-20"/>
<path style="fill:#CCF2E3;" d="M370.4,252c52,10.4,100-7.2,108.8-59.2c8.8-52-25.6-103.2-77.6-113.6s-77.6,27.2-86.4,79.2
	C305.6,210.4,318.4,240.8,370.4,252z"/>
<path style="fill:#AAD6C3;" d="M370.4,252c52,10.4,100-7.2,108.8-59.2c8.8-52-34.4-77.6-86.4-88S333.6,76,315.2,156
	C303.2,207.2,316.8,240.8,370.4,252z"/>
<g>
	<path style="fill:#E7F7EF;" d="M267.2,124c8-1.6,14.4-1.6,15.2,0.8c0.8,2.4-4.8,5.6-12.8,8c-8,1.6-14.4,1.6-15.2-0.8
		C253.6,129.6,260,125.6,267.2,124z"/>
	<path style="fill:#E7F7EF;" d="M293.6,68.8c8-1.6,14.4-1.6,15.2,0.8c0.8,2.4-4.8,5.6-12.8,8c-8,1.6-14.4,1.6-15.2-0.8
		C280,73.6,285.6,70.4,293.6,68.8z"/>
	<path style="fill:#E7F7EF;" d="M281.6,188c8-1.6,14.4-1.6,15.2,0.8c0.8,2.4-4.8,5.6-12.8,8c-8,1.6-14.4,1.6-15.2-0.8
		C268,193.6,273.6,189.6,281.6,188z"/>
	<path style="fill:#E7F7EF;" d="M384.8,95.2c16.8,4,31.2,4,32,0s-12.8-9.6-29.6-13.6c-16.8-4-21.6-1.6-22.4,2.4
		C364.8,87.2,368,91.2,384.8,95.2z"/>
	<path style="fill:#E7F7EF;" d="M394.4,69.6c16,7.2,30.4,9.6,31.2,6.4c1.6-3.2-9.6-12-25.6-19.2s-20.8-5.6-22.4-2.4
		C376,58.4,378.4,62.4,394.4,69.6z"/>
</g>
<g>
	<path style="fill:#CCF2E3;" d="M125.6,48.8C111.2,36,74.4,55.2,42.4,91.2s-32.8,75.2-18.4,88s37.6-6.4,69.6-42.4
		C124.8,100,139.2,60.8,125.6,48.8z"/>
	<path style="fill:#CCF2E3;" d="M176,181.6c-56,12-44-4-46.4-20S110.4,136,166.4,124s80-3.2,83.2,12.8C252,152,232,169.6,176,181.6z
		"/>
</g>
<path style="fill:#AAD6C3;" d="M248.8,136c2.4,16-17.6,33.6-73.6,44.8c-56,12-44-4-46.4-20"/>
<path style="fill:#CCF2E3;" d="M152.8,126.4c-56,12-44-4-46.4-20s-27.2-24.8,28.8-36.8s88-4,91.2,12
	C228.8,96.8,208.8,114.4,152.8,126.4z"/>
<path style="fill:#AAD6C3;" d="M226.4,80.8c2.4,16-17.6,33.6-73.6,44.8c-56,12-44-4-46.4-20"/>
<path style="fill:#CCF2E3;" d="M162.4,244c-56,12-44-4-46.4-20s-19.2-25.6,36.8-37.6s80.8-3.2,83.2,12.8
	C238.4,214.4,218.4,232,162.4,244z"/>
<path style="fill:#AAD6C3;" d="M236,198.4c2.4,16-17.6,33.6-73.6,44.8c-56,12-44-4-46.4-20"/>
<path style="fill:#CCF2E3;" d="M125.6,252c-52,10.4-100-7.2-108.8-59.2S43.2,89.6,94.4,79.2c52-10.4,77.6,27.2,86.4,79.2
	C190.4,210.4,177.6,240.8,125.6,252z"/>
<path style="fill:#AAD6C3;" d="M125.6,252c-52,10.4-100-7.2-108.8-59.2s34.4-77.6,86.4-88.8c52-10.4,59.2-28.8,77.6,51.2
	C192.8,207.2,179.2,240.8,125.6,252z"/>
<g>
	<path style="fill:#E7F7EF;" d="M228.8,124c-8-1.6-14.4-1.6-15.2,0.8c-0.8,2.4,4.8,5.6,12.8,8c8,1.6,14.4,1.6,15.2-0.8
		C242.4,129.6,236,125.6,228.8,124z"/>
	<path style="fill:#E7F7EF;" d="M202.4,68.8c-8-1.6-14.4-1.6-15.2,0.8s4.8,5.6,12.8,8c8,1.6,14.4,1.6,15.2-0.8
		C216,73.6,209.6,70.4,202.4,68.8z"/>
	<path style="fill:#E7F7EF;" d="M214.4,188c-8-1.6-14.4-1.6-15.2,0.8c-0.8,2.4,4.8,5.6,12.8,8c8,1.6,14.4,1.6,15.2-0.8
		C228,193.6,222.4,189.6,214.4,188z"/>
	<path style="fill:#E7F7EF;" d="M111.2,95.2c-16.8,4-31.2,4-32,0s12.8-9.6,29.6-13.6s21.6-1.6,22.4,2.4
		C131.2,87.2,128,91.2,111.2,95.2z"/>
	<path style="fill:#E7F7EF;" d="M101.6,69.6c-16,7.2-30.4,9.6-31.2,6.4C68.8,72.8,80,64,96,56.8s20.8-5.6,22.4-2.4
		C120,58.4,117.6,62.4,101.6,69.6z"/>
</g>
<g>
</g>
<g>
</g>
<g>
</g>
<g>
</g>
<g>
</g>
<g>
</g>
<g>
</g>
<g>
</g>
<g>
</g>
<g>
</g>
<g>
</g>
<g>
</g>
<g>
</g>
<g>
</g>
<g>
</g>
</svg>
